<?xml version="1.0" standalone="no"?><!DOCTYPE svg PUBLIC "-//W3C//DTD SVG 1.1//EN" "http://www.w3.org/Graphics/SVG/1.1/DTD/svg11.dtd"><svg t="1777513179430" class="icon" viewBox="0 0 1029 1024" version="1.1" xmlns="http://www.w3.org/2000/svg" p-id="5435" xmlns:xlink="http://www.w3.org/1999/xlink" width="200.9765625" height="200"><path d="M916.48 148.992c-69.632-2.56-137.728-16.384-202.752-40.96-60.416-23.04-118.784-52.224-173.056-87.04L514.56 2.56 488.448 20.48c-54.784 34.816-112.64 64-173.056 87.04-65.024 24.064-133.632 37.888-202.752 40.96l-44.032 1.024V578.56c0 215.552 290.304 443.392 446.464 443.392s446.464-227.84 446.464-443.392V150.016l-45.056-1.024z m-34.304 432.64h-1.536c0 173.056-260.608 369.664-367.616 369.664-105.984 0-368.64-198.656-368.64-370.176V223.744C212.48 216.064 279.04 199.68 343.04 175.616c59.392-23.04 116.736-51.2 171.52-83.968 54.272 32.768 111.104 61.44 169.984 84.992 63.488 24.576 130.048 40.448 197.632 47.104v357.888z" fill="#d81e06" p-id="5436"></path><path d="M784.896 340.48l-367.104 365.056-176.128-180.224 30.72-38.4 141.824 109.056 346.112-280.576 24.576 25.088z" fill="#d81e06" p-id="5437"></path></svg>